<svg width="20" height="20" viewBox="0 0 20 20" fill="none" xmlns="http://www.w3.org/2000/svg">
<path d="M4.99967 12.1374L3.633 18.0554C3.59068 18.2346 3.60338 18.4224 3.66945 18.5943C3.73552 18.7662 3.85189 18.9141 4.00335 19.0188C4.15481 19.1235 4.33432 19.1801 4.51845 19.1812C4.70258 19.1823 4.88275 19.1278 5.03545 19.0249L10.0298 15.6954L15.0241 19.0249C15.1804 19.1287 15.3646 19.1821 15.5521 19.178C15.7396 19.1739 15.9213 19.1124 16.0729 19.0019C16.2244 18.8915 16.3385 18.7372 16.3998 18.56C16.461 18.3827 16.4665 18.191 16.4156 18.0105L14.7379 12.1402L18.8985 8.39603C19.0318 8.27605 19.1269 8.11963 19.1722 7.94614C19.2175 7.77264 19.211 7.58967 19.1534 7.41986C19.0958 7.25004 18.9897 7.10083 18.8483 6.99067C18.7068 6.88051 18.5361 6.81423 18.3574 6.80004L13.1282 6.38362L10.8654 1.3746C10.7932 1.21331 10.6759 1.07635 10.5277 0.980249C10.3794 0.884145 10.2065 0.833008 10.0298 0.833008C9.85309 0.833008 9.68017 0.884145 9.5319 0.980249C9.38363 1.07635 9.26634 1.21331 9.19419 1.3746L6.93137 6.38362L1.70222 6.79913C1.52653 6.81305 1.35857 6.87729 1.21843 6.98416C1.07829 7.09104 0.97191 7.23602 0.912015 7.40178C0.85212 7.56753 0.841246 7.74703 0.880693 7.9188C0.920141 8.09057 1.00824 8.24734 1.13445 8.37035L4.99967 12.1374ZM7.61654 8.16947C7.78027 8.15658 7.9375 8.09987 8.07177 8.0053C8.20604 7.91073 8.31239 7.78179 8.37968 7.63198L10.0298 3.98047L11.6799 7.63198C11.7472 7.78179 11.8535 7.91073 11.9878 8.0053C12.1221 8.09987 12.2793 8.15658 12.443 8.16947L16.0863 8.4584L13.086 11.1587C12.8255 11.3936 12.7219 11.7549 12.8173 12.0925L13.9666 16.1146L10.5398 13.8297C10.3894 13.7288 10.2123 13.6749 10.0312 13.6749C9.85002 13.6749 9.67297 13.7288 9.52256 13.8297L5.94167 16.2173L6.90477 12.0475C6.94008 11.8942 6.93534 11.7343 6.89101 11.5833C6.84667 11.4323 6.76423 11.2953 6.65161 11.1853L3.86506 8.46849L7.61654 8.16947Z" fill="#F3CD03"/>
</svg>
