<svg width="20" height="20" viewBox="0 0 20 20" fill="none" xmlns="http://www.w3.org/2000/svg">
<path d="M19.0969 7.41964C19.0392 7.24983 18.9331 7.10061 18.7916 6.99043C18.6501 6.88024 18.4795 6.81389 18.3007 6.79959L13.0716 6.38408L10.8087 1.37506C10.7367 1.21373 10.6195 1.07671 10.4712 0.980522C10.323 0.884337 10.1501 0.833105 9.97344 0.833008C9.79675 0.832911 9.62381 0.883954 9.47548 0.979976C9.32715 1.076 9.20979 1.2129 9.13755 1.37415L6.87473 6.38408L1.64558 6.79959C1.46989 6.8135 1.30193 6.87774 1.16179 6.98462C1.02165 7.0915 0.91527 7.23648 0.855374 7.40224C0.795479 7.56799 0.784605 7.74749 0.824053 7.91926C0.8635 8.09103 0.951599 8.2478 1.07781 8.37081L4.94212 12.1379L3.57544 18.0559C3.53394 18.235 3.54724 18.4225 3.61361 18.594C3.67999 18.7655 3.79637 18.913 3.94765 19.0175C4.09894 19.1221 4.27815 19.1787 4.46202 19.1801C4.6459 19.1815 4.82594 19.1276 4.97881 19.0254L9.97315 15.6958L14.9675 19.0254C15.1237 19.1291 15.308 19.1825 15.4955 19.1784C15.683 19.1743 15.8647 19.1129 16.0162 19.0024C16.1678 18.8919 16.2819 18.7377 16.3431 18.5604C16.4044 18.3832 16.4099 18.1914 16.3589 18.0109L14.6813 12.1406L18.8419 8.39649C19.1143 8.15067 19.2143 7.76727 19.0969 7.41964Z" fill="#F3CD03"/>
</svg>
